<?xml version="1.0" encoding="UTF-8"?>
<svg id="Layer_2" xmlns="http://www.w3.org/2000/svg" viewBox="0 0 64.79 60.22">
  <defs>
    <style>
      .cls-1 {
        fill: #71aac4;
        stroke: #fff;
        stroke-miterlimit: 10;
        stroke-width: 1.61px;
      }

      .cls-2 {
        fill: #fff;
      }
    </style>
  </defs>
  <g id="Layer_1-2" data-name="Layer_1">
    <g>
      <rect class="cls-1" x=".81" y=".81" width="63.18" height="58.61" rx="11.64" ry="11.64"/>
      <g>
        <path class="cls-2" d="M48.52,24.99c0-2.35-1.54-4.42-3.77-5.12,1.08-2.07.71-4.62-.96-6.28-1.67-1.66-4.21-2.04-6.28-.96-.7-2.23-2.77-3.77-5.12-3.77s-4.42,1.54-5.12,3.77c-2.07-1.08-4.62-.71-6.28.96-1.66,1.66-2.04,4.21-.96,6.28-2.23.7-3.77,2.77-3.77,5.12s1.54,4.42,3.77,5.12c-1.08,2.07-.71,4.62.96,6.28,1.01,1.01,2.36,1.57,3.8,1.57.86,0,1.72-.21,2.48-.61.7,2.23,2.77,3.77,5.12,3.77s4.42-1.54,5.12-3.77c.77.4,1.62.61,2.48.61,1.44,0,2.79-.56,3.8-1.57,1.66-1.66,2.04-4.21.96-6.28,2.23-.7,3.77-2.77,3.77-5.12ZM42.1,29.01c-.25.43-.18.96.17,1.31,1.25,1.25,1.25,3.28,0,4.53-1.25,1.25-3.28,1.25-4.53,0-.35-.35-.89-.42-1.32-.16-.47.12-.81.56-.81,1.05,0,1.77-1.44,3.21-3.2,3.21s-3.21-1.44-3.21-3.21c0-.49-.34-.93-.81-1.05-.42-.25-.97-.18-1.32.16-1.25,1.25-3.28,1.25-4.53,0-.61-.6-.94-1.41-.94-2.27s.33-1.66.94-2.27c.35-.35.42-.89.17-1.31-.12-.48-.55-.82-1.05-.82-1.77,0-3.21-1.44-3.21-3.21s1.44-3.2,3.21-3.2c.49,0,.93-.34,1.05-.82.25-.42.18-.97-.17-1.31-.6-.6-.94-1.41-.94-2.27s.33-1.66.94-2.27c1.25-1.25,3.28-1.25,4.53,0,.35.35.89.42,1.32.17.47-.12.81-.56.81-1.05,0-1.77,1.44-3.21,3.21-3.21s3.2,1.44,3.2,3.21c0,.49.34.93.82,1.05.42.25.96.19,1.32-.17,1.25-1.25,3.29-1.25,4.53,0,1.25,1.25,1.25,3.28,0,4.53-.35.35-.42.89-.17,1.31.12.48.56.82,1.05.82,1.77,0,3.2,1.44,3.2,3.2s-1.44,3.21-3.2,3.21c-.5,0-.93.34-1.05.82Z"/>
        <path class="cls-2" d="M32.4,15.21c-5.39,0-9.78,4.39-9.78,9.78s4.39,9.78,9.78,9.78,9.78-4.39,9.78-9.78-4.38-9.78-9.78-9.78ZM40.01,24.99c0,4.2-3.41,7.61-7.61,7.61s-7.61-3.41-7.61-7.61,3.41-7.61,7.61-7.61,7.61,3.41,7.61,7.61Z"/>
        <path class="cls-2" d="M40.64,39.06c-.6,0-1.08.49-1.08,1.08v8.34l-6.66-3.71s-.05-.02-.08-.04c-.04-.02-.08-.03-.12-.04-.02,0-.04,0-.07-.02-.04,0-.09-.02-.14-.02h-.1s-.07,0-.1,0c-.03,0-.05,0-.12.02-.03,0-.06.01-.09.02l-.06.02.08.19-.13-.17s-.05.02-.1.05l-6.64,3.7v-8.34c0-.6-.49-1.08-1.08-1.08s-1.08.49-1.08,1.08v9.92c0,.44.24.85.61,1.07.37.21.85.22,1.22.01l7.5-4.18,7.49,4.18c.18.1.39.16.6.16s.43-.06.62-.17c.38-.22.61-.63.61-1.08v-9.92c0-.6-.49-1.08-1.08-1.08ZM32.41,44.87h0s0,0,0,0ZM32.07,44.93h0s0,0,0,0ZM31.99,44.97h0s0,0,0,0h0Z"/>
      </g>
    </g>
  </g>
</svg>