<svg xmlns="http://www.w3.org/2000/svg" xmlns:xlink="http://www.w3.org/1999/xlink" viewBox="0 0 24 24" fill="#FFFFFF">
  <path d="M20,20H4c-1.1,0-2-0.9-2-2V6c0-1.1,0.9-2,2-2h16c1.1,0,2,0.9,2,2v12C22,19.1,21.1,20,20,20z M4,6v12h16l0-12H4z" fill="#FFFFFF" />
  <path d="M20,19H4c-0.6,0-1-0.4-1-1V6c0-0.6,0.4-1,1-1h16c0.6,0,1,0.4,1,1v12 C21,18.6,20.6,19,20,19z" opacity=".3" fill="#FFFFFF" />
  <path d="M18.3 16L14.5 11 11 15 8.5 12.5 5.8 16zM10 8A1 1 0 1 0 10 10 1 1 0 1 0 10 8z" fill="#FFFFFF" />
</svg>