<?xml version="1.0" encoding="UTF-8"?>
<svg id="Layer_2" xmlns="http://www.w3.org/2000/svg" viewBox="0 0 65.47 45.28">
  <defs>
    <style>
      .cls-1 {
        fill: #fff;
      }
    </style>
  </defs>
  <g id="Layer_1-2" data-name="Layer_1">
    <g>
      <g>
        <rect class="cls-1" x="30.47" y="12.24" width="7.73" height=".03" transform="translate(1.39 27.87) rotate(-45)"/>
        <path class="cls-1" d="M43.46,27.07l-6.36,6.36-5.51,5.49-4.52,4.52c-1.21,1.24-2.81,1.84-4.41,1.84s-3.22-.61-4.43-1.84L1.84,27.07c-1.19-1.19-1.84-2.77-1.84-4.43s.65-3.26,1.84-4.43L18.23,1.82c2.43-2.43,6.41-2.43,8.84,0l4.52,4.52-3.17,3.17-4.52-4.5c-.7-.7-1.8-.7-2.5,0L5.01,21.38c-.31.34-.52.79-.52,1.26s.2.9.52,1.24l16.39,16.39c.7.67,1.8.7,2.5,0l16.39-16.39c.67-.67.67-1.8,0-2.5l-6.41-6.41,3.17-3.17,6.41,6.41c2.45,2.43,2.45,6.41,0,8.86Z"/>
      </g>
      <path class="cls-1" d="M63.63,18.21L47.26,1.82c-2.45-2.43-6.43-2.43-8.86,0l-16.39,16.39c-2.43,2.43-2.43,6.41,0,8.86l6.34,6.32,3.19-3.15-6.34-6.36c-.7-.67-.7-1.8,0-2.5l6.41-6.39,5.46-5.46,4.5-4.52c.34-.36.81-.52,1.26-.52s.9.16,1.24.52l16.39,16.37c.34.34.52.79.52,1.26s-.18.9-.52,1.24l-16.39,16.39c-.67.67-1.8.67-2.5,0l-4.5-4.52-3.19,3.17,4.52,4.52c1.21,1.24,2.81,1.84,4.43,1.84s3.19-.61,4.43-1.84l16.37-16.37c1.19-1.19,1.84-2.77,1.84-4.43s-.65-3.26-1.84-4.43Z"/>
    </g>
  </g>
</svg>