<?xml version="1.0" encoding="UTF-8"?>
<svg id="Layer_2" xmlns="http://www.w3.org/2000/svg" viewBox="0 0 52.75 53.39">
  <defs>
    <style>
      .cls-1 {
        fill: #fff;
      }

      .cls-2 {
        fill: #f5871f;
      }
    </style>
  </defs>
  <g id="Layer_1-2" data-name="Layer_1">
    <g>
      <path class="cls-1" d="M33.1,30.3c-5.55-5.53-5.04-14.73,1.08-19.61-1.71-1.61-3.85-2.74-6.12-3.34-.48-.13-.97-.24-1.46-.29-.08-.01-.16-.02-.24-.03-.03,0-.03,0-.04-.01,0-.16,0-.32,0-.48,0-.38,0-.75,0-1.13,0-.02,0-.05,0-.07,0-.01.01-.02.02-.03.76-1.08.85-2.57.14-3.69-1.02-1.7-3.37-2.14-4.93-.9-1.22.93-1.63,2.71-.95,4.09.09.19.21.37.33.54,0,.56,0,1.13,0,1.69-.31.04-.64.07-.95.13-.29.06-.57.13-.85.2-5.36,1.42-8.86,5.4-10.47,10.6-.55,1.72-.78,3.51-.92,5.3-.18,2.05-.31,4.11-.63,6.15-.39,2.25-.83,4.57-1.95,6.58-.56.97-1.3,1.91-2.35,2.37-.5.22-.96.48-1.37.83-.87.72-1.38,1.81-1.44,2.93-.05,1.1.19,2.46,1.09,3.18.49.37,1.12.42,1.71.44,1.4.04,2.8.06,4.2.08,2.82.02,5.63,0,8.45,0,8.25,0,16.49.01,24.74,0,1.4-.02,2.8-.04,4.2-.08,1.37,0,2.18-.48,2.59-1.84.34-1.13.29-2.42-.24-3.48-.37-.71-.96-1.3-1.64-1.71-.23-.14-.48-.25-.72-.36-1.09-.49-1.85-1.5-2.43-2.52-.3-.55-.55-1.13-.76-1.73-.01-.02,0,0-.02-.02-.12-.02-.25-.02-.38-.04-2.9-.34-5.66-1.69-7.71-3.76-1.21-1.21,1.21,1.21,0,0Z"/>
      <path class="cls-1" d="M16.86,47.89c0,3.02,3.02,5.49,6.75,5.49s6.75-2.48,6.75-5.49h-13.5Z"/>
      <circle class="cls-2" cx="42.42" cy="20.98" r="10.33"/>
      <path class="cls-1" d="M43.79,15.93v10.08h-2.52v-5.41c0-.78-.02-1.25-.06-1.41-.04-.16-.14-.28-.31-.36s-.54-.12-1.12-.12h-.25v-1.18c1.22-.26,2.14-.8,2.77-1.61h1.48Z"/>
    </g>
  </g>
</svg>