<?xml version="1.0" encoding="UTF-8"?>
<svg id="Layer_2" xmlns="http://www.w3.org/2000/svg" xmlns:xlink="http://www.w3.org/1999/xlink" viewBox="0 0 55.18 55.18">
  <defs>
    <style>
      .cls-1 {
        fill: #71aac4;
      }

      .cls-2 {
        fill: #48c1c4;
      }

      .cls-3 {
        opacity: .3;
      }

      .cls-4 {
        fill: #fff;
      }

      .cls-5 {
        fill: #057a7d;
      }

      .cls-6 {
        clip-path: url(#clippath);
      }
    </style>
    <clipPath id="clippath">
      <circle class="cls-2" cx="27.59" cy="27.59" r="27.59"/>
    </clipPath>
  </defs>
  <g id="Layer_1-2" data-name="Layer_1">
    <g>
      <g>
        <circle class="cls-2" cx="27.59" cy="27.59" r="27.59"/>
        <g class="cls-6">
          <circle class="cls-1" cx="27.59" cy="27.59" r="27.59"/>
          <g class="cls-3">
            <path class="cls-5" d="M53.05,47.35c2.44-1.38,4.09-3.99,4.09-6.98,0-4.42-3.6-8.02-8.02-8.02s-8.02,3.6-8.02,8.02c0,2.99,1.65,5.61,4.09,6.98-5.63,1.69-9.74,6.92-9.74,13.09,0,.45.36.81.81.81l16.79-13.9Z"/>
            <path class="cls-5" d="M52.93,47.22c2.44-1.38,4.09-3.99,4.09-6.98,0-4.42-3.6-8.02-8.02-8.02s-8.02,3.6-8.02,8.02c0,2.99,1.65,5.61,4.09,6.98-5.63,1.69-9.74,6.92-9.74,13.09,0,.45.36.81.81.81l16.79-13.9Z"/>
            <path class="cls-5" d="M52.8,47.09c2.44-1.38,4.09-3.99,4.09-6.98,0-4.42-3.6-8.02-8.02-8.02s-8.02,3.6-8.02,8.02c0,2.99,1.65,5.61,4.09,6.98-5.63,1.69-9.74,6.92-9.74,13.09,0,.45.36.81.81.81l16.79-13.9Z"/>
            <path class="cls-5" d="M52.67,46.97c2.44-1.38,4.09-3.99,4.09-6.98,0-4.42-3.6-8.02-8.02-8.02s-8.02,3.6-8.02,8.02c0,2.99,1.65,5.61,4.09,6.98-5.63,1.69-9.74,6.92-9.74,13.09,0,.45.36.81.81.81l16.79-13.9Z"/>
            <path class="cls-5" d="M52.55,46.84c2.44-1.38,4.09-3.99,4.09-6.98,0-4.42-3.6-8.02-8.02-8.02s-8.02,3.6-8.02,8.02c0,2.99,1.65,5.61,4.09,6.98-5.63,1.69-9.74,6.92-9.74,13.09,0,.45.36.81.81.81l16.79-13.9Z"/>
            <path class="cls-5" d="M52.42,46.71c2.44-1.38,4.09-3.99,4.09-6.98,0-4.42-3.6-8.02-8.02-8.02s-8.02,3.6-8.02,8.02c0,2.99,1.65,5.61,4.09,6.98-5.63,1.69-9.74,6.92-9.74,13.09,0,.45.36.81.81.81l16.79-13.9Z"/>
            <path class="cls-5" d="M52.29,46.59c2.44-1.38,4.09-3.99,4.09-6.98,0-4.42-3.6-8.02-8.02-8.02s-8.02,3.6-8.02,8.02c0,2.99,1.65,5.61,4.09,6.98-5.63,1.69-9.74,6.92-9.74,13.09,0,.45.36.81.81.81l16.79-13.9Z"/>
            <path class="cls-5" d="M52.17,46.46c2.44-1.38,4.09-3.99,4.09-6.98,0-4.42-3.6-8.02-8.02-8.02s-8.02,3.6-8.02,8.02c0,2.99,1.65,5.61,4.09,6.98-5.63,1.69-9.74,6.92-9.74,13.09,0,.45.36.81.81.81l16.79-13.9Z"/>
            <path class="cls-5" d="M52.04,46.33c2.44-1.38,4.09-3.99,4.09-6.98,0-4.42-3.6-8.02-8.02-8.02s-8.02,3.6-8.02,8.02c0,2.99,1.65,5.61,4.09,6.98-5.63,1.69-9.74,6.92-9.74,13.09,0,.45.36.81.81.81l16.79-13.9Z"/>
            <path class="cls-5" d="M51.91,46.21c2.44-1.38,4.09-3.99,4.09-6.98,0-4.42-3.6-8.02-8.02-8.02s-8.02,3.6-8.02,8.02c0,2.99,1.65,5.61,4.09,6.98-5.63,1.69-9.74,6.92-9.74,13.09,0,.45.36.81.81.81l16.79-13.9Z"/>
            <path class="cls-5" d="M51.79,46.08c2.44-1.38,4.09-3.99,4.09-6.98,0-4.42-3.6-8.02-8.02-8.02s-8.02,3.6-8.02,8.02c0,2.99,1.65,5.61,4.09,6.98-5.63,1.69-9.74,6.92-9.74,13.09,0,.45.36.81.81.81l16.79-13.9Z"/>
            <path class="cls-5" d="M51.66,45.95c2.44-1.38,4.09-3.99,4.09-6.98,0-4.42-3.6-8.02-8.02-8.02s-8.02,3.6-8.02,8.02c0,2.99,1.65,5.61,4.09,6.98-5.63,1.69-9.74,6.92-9.74,13.09,0,.45.36.81.81.81l16.79-13.9Z"/>
            <path class="cls-5" d="M51.53,45.83c2.44-1.38,4.09-3.99,4.09-6.98,0-4.42-3.6-8.02-8.02-8.02s-8.02,3.6-8.02,8.02c0,2.99,1.65,5.61,4.09,6.98-5.63,1.69-9.74,6.92-9.74,13.09,0,.45.36.81.81.81l16.79-13.9Z"/>
            <path class="cls-5" d="M51.41,45.7c2.44-1.38,4.09-3.99,4.09-6.98,0-4.42-3.6-8.02-8.02-8.02s-8.02,3.6-8.02,8.02c0,2.99,1.65,5.61,4.09,6.98-5.63,1.69-9.74,6.92-9.74,13.09,0,.45.36.81.81.81l16.79-13.9Z"/>
            <path class="cls-5" d="M51.28,45.57c2.44-1.38,4.09-3.99,4.09-6.98,0-4.42-3.6-8.02-8.02-8.02s-8.02,3.6-8.02,8.02c0,2.99,1.65,5.61,4.09,6.98-5.63,1.69-9.74,6.92-9.74,13.09,0,.45.36.81.81.81l16.79-13.9Z"/>
            <path class="cls-5" d="M51.15,45.45c2.44-1.38,4.09-3.99,4.09-6.98,0-4.42-3.6-8.02-8.02-8.02s-8.02,3.6-8.02,8.02c0,2.99,1.65,5.61,4.09,6.98-5.63,1.69-9.74,6.92-9.74,13.09,0,.45.36.81.81.81l16.79-13.9Z"/>
            <path class="cls-5" d="M51.03,45.32c2.44-1.38,4.09-3.99,4.09-6.98,0-4.42-3.6-8.02-8.02-8.02s-8.02,3.6-8.02,8.02c0,2.99,1.65,5.61,4.09,6.98-5.63,1.69-9.74,6.92-9.74,13.09,0,.45.36.81.81.81l16.79-13.9Z"/>
            <path class="cls-5" d="M50.9,45.19c2.44-1.38,4.09-3.99,4.09-6.98,0-4.42-3.6-8.02-8.02-8.02s-8.02,3.6-8.02,8.02c0,2.99,1.65,5.61,4.09,6.98-5.63,1.69-9.74,6.92-9.74,13.09,0,.45.36.81.81.81l16.79-13.9Z"/>
            <path class="cls-5" d="M50.77,45.07c2.44-1.38,4.09-3.99,4.09-6.98,0-4.42-3.6-8.02-8.02-8.02s-8.02,3.6-8.02,8.02c0,2.99,1.65,5.61,4.09,6.98-5.63,1.69-9.74,6.92-9.74,13.09,0,.45.36.81.81.81l16.79-13.9Z"/>
            <path class="cls-5" d="M50.65,44.94c2.44-1.38,4.09-3.99,4.09-6.98,0-4.42-3.6-8.02-8.02-8.02s-8.02,3.6-8.02,8.02c0,2.99,1.65,5.61,4.09,6.98-5.63,1.69-9.74,6.92-9.74,13.09,0,.45.36.81.81.81l16.79-13.9Z"/>
            <path class="cls-5" d="M50.52,44.81c2.44-1.38,4.09-3.99,4.09-6.98,0-4.42-3.6-8.02-8.02-8.02s-8.02,3.6-8.02,8.02c0,2.99,1.65,5.61,4.09,6.98-5.63,1.69-9.74,6.92-9.74,13.09,0,.45.36.81.81.81l16.79-13.9Z"/>
            <path class="cls-5" d="M50.39,44.69c2.44-1.38,4.09-3.99,4.09-6.98,0-4.42-3.6-8.02-8.02-8.02s-8.02,3.6-8.02,8.02c0,2.99,1.65,5.61,4.09,6.98-5.63,1.69-9.74,6.92-9.74,13.09,0,.45.36.81.81.81l16.79-13.9Z"/>
            <path class="cls-5" d="M50.27,44.56c2.44-1.38,4.09-3.99,4.09-6.98,0-4.42-3.6-8.02-8.02-8.02s-8.02,3.6-8.02,8.02c0,2.99,1.65,5.61,4.09,6.98-5.63,1.69-9.74,6.92-9.74,13.09,0,.45.36.81.81.81l16.79-13.9Z"/>
            <path class="cls-5" d="M50.14,44.43c2.44-1.38,4.09-3.99,4.09-6.98,0-4.42-3.6-8.02-8.02-8.02s-8.02,3.6-8.02,8.02c0,2.99,1.65,5.61,4.09,6.98-5.63,1.69-9.74,6.92-9.74,13.09,0,.45.36.81.81.81l16.79-13.9Z"/>
            <path class="cls-5" d="M50.01,44.31c2.44-1.38,4.09-3.99,4.09-6.98,0-4.42-3.6-8.02-8.02-8.02s-8.02,3.6-8.02,8.02c0,2.99,1.65,5.61,4.09,6.98-5.63,1.69-9.74,6.92-9.74,13.09,0,.45.36.81.81.81l16.79-13.9Z"/>
            <path class="cls-5" d="M49.89,44.18c2.44-1.38,4.09-3.99,4.09-6.98,0-4.42-3.6-8.02-8.02-8.02s-8.02,3.6-8.02,8.02c0,2.99,1.65,5.61,4.09,6.98-5.63,1.69-9.74,6.92-9.74,13.09,0,.45.36.81.81.81l16.79-13.9Z"/>
            <path class="cls-5" d="M49.76,44.05c2.44-1.38,4.09-3.99,4.09-6.98,0-4.42-3.6-8.02-8.02-8.02s-8.02,3.6-8.02,8.02c0,2.99,1.65,5.61,4.09,6.98-5.63,1.69-9.74,6.92-9.74,13.09,0,.45.36.81.81.81l16.79-13.9Z"/>
            <path class="cls-5" d="M49.63,43.93c2.44-1.38,4.09-3.99,4.09-6.98,0-4.42-3.6-8.02-8.02-8.02s-8.02,3.6-8.02,8.02c0,2.99,1.65,5.61,4.09,6.98-5.63,1.69-9.74,6.92-9.74,13.09,0,.45.36.81.81.81l16.79-13.9Z"/>
            <path class="cls-5" d="M49.51,43.8c2.44-1.38,4.09-3.99,4.09-6.98,0-4.42-3.6-8.02-8.02-8.02s-8.02,3.6-8.02,8.02c0,2.99,1.65,5.61,4.09,6.98-5.63,1.69-9.74,6.92-9.74,13.09,0,.45.36.81.81.81l16.79-13.9Z"/>
            <path class="cls-5" d="M59.12,56.76c0-6.17-4.11-11.4-9.74-13.09,2.44-1.38,4.09-3.99,4.09-6.98,0-4.42-3.6-8.02-8.02-8.02s-8.02,3.6-8.02,8.02c0,2.99,1.65,5.61,4.09,6.98-5.63,1.69-9.74,6.92-9.74,13.09,0,.45.36.81.81.81l26.53-.81Z"/>
            <path class="cls-5" d="M58.99,56.64c0-6.17-4.11-11.4-9.74-13.09,2.44-1.38,4.09-3.99,4.09-6.98,0-4.42-3.6-8.02-8.02-8.02s-8.02,3.6-8.02,8.02c0,2.99,1.65,5.61,4.09,6.98-5.63,1.69-9.74,6.92-9.74,13.09,0,.45.36.81.81.81l26.53-.81Z"/>
            <path class="cls-5" d="M58.86,56.51c0-6.17-4.11-11.4-9.74-13.09,2.44-1.38,4.09-3.99,4.09-6.98,0-4.42-3.6-8.02-8.02-8.02s-8.02,3.6-8.02,8.02c0,2.99,1.65,5.61,4.09,6.98-5.63,1.69-9.74,6.92-9.74,13.09,0,.45.36.81.81.81l26.53-.81Z"/>
            <path class="cls-5" d="M58.74,56.38c0-6.17-4.11-11.4-9.74-13.09,2.44-1.38,4.09-3.99,4.09-6.98,0-4.42-3.6-8.02-8.02-8.02s-8.02,3.6-8.02,8.02c0,2.99,1.65,5.61,4.09,6.98-5.63,1.69-9.74,6.92-9.74,13.09,0,.45.36.81.81.81l26.53-.81Z"/>
            <path class="cls-5" d="M58.61,56.26c0-6.17-4.11-11.4-9.74-13.09,2.44-1.38,4.09-3.99,4.09-6.98,0-4.42-3.6-8.02-8.02-8.02s-8.02,3.6-8.02,8.02c0,2.99,1.65,5.61,4.09,6.98-5.63,1.69-9.74,6.92-9.74,13.09,0,.45.36.81.81.81l26.53-.81Z"/>
            <path class="cls-5" d="M58.48,56.13c0-6.17-4.11-11.4-9.74-13.09,2.44-1.38,4.09-3.99,4.09-6.98,0-4.42-3.6-8.02-8.02-8.02s-8.02,3.6-8.02,8.02c0,2.99,1.65,5.61,4.09,6.98-5.63,1.69-9.74,6.92-9.74,13.09,0,.45.36.81.81.81l26.53-.81Z"/>
            <path class="cls-5" d="M48.62,42.91c2.44-1.38,4.09-3.99,4.09-6.98,0-4.42-3.6-8.02-8.02-8.02s-8.02,3.6-8.02,8.02c0,2.99,1.65,5.61,4.09,6.98-5.63,1.69-9.74,6.92-9.74,13.09,0,.45.36.81.81.81h25.72c.45,0,.81-.36.81-.81,0-6.17-4.11-11.4-9.74-13.09Z"/>
            <path class="cls-5" d="M48.49,42.79c2.44-1.38,4.09-3.99,4.09-6.98,0-4.42-3.6-8.02-8.02-8.02s-8.02,3.6-8.02,8.02c0,2.99,1.65,5.61,4.09,6.98-5.63,1.69-9.74,6.92-9.74,13.09,0,.45.36.81.81.81h25.72c.45,0,.81-.36.81-.81,0-6.17-4.11-11.4-9.74-13.09Z"/>
            <path class="cls-5" d="M48.37,42.66c2.44-1.38,4.09-3.99,4.09-6.98,0-4.42-3.6-8.02-8.02-8.02s-8.02,3.6-8.02,8.02c0,2.99,1.65,5.61,4.09,6.98-5.63,1.69-9.74,6.92-9.74,13.09,0,.45.36.81.81.81h25.72c.45,0,.81-.36.81-.81,0-6.17-4.11-11.4-9.74-13.09Z"/>
            <path class="cls-5" d="M48.24,42.53c2.44-1.38,4.09-3.99,4.09-6.98,0-4.42-3.6-8.02-8.02-8.02s-8.02,3.6-8.02,8.02c0,2.99,1.65,5.61,4.09,6.98-5.63,1.69-9.74,6.92-9.74,13.09,0,.45.36.81.81.81h25.72c.45,0,.81-.36.81-.81,0-6.17-4.11-11.4-9.74-13.09Z"/>
            <path class="cls-5" d="M48.11,42.41c2.44-1.38,4.09-3.99,4.09-6.98,0-4.42-3.6-8.02-8.02-8.02s-8.02,3.6-8.02,8.02c0,2.99,1.65,5.61,4.09,6.98-5.63,1.69-9.74,6.92-9.74,13.09,0,.45.36.81.81.81h25.72c.45,0,.81-.36.81-.81,0-6.17-4.11-11.4-9.74-13.09Z"/>
            <path class="cls-5" d="M47.99,42.28c2.44-1.38,4.09-3.99,4.09-6.98,0-4.42-3.6-8.02-8.02-8.02s-8.02,3.6-8.02,8.02c0,2.99,1.65,5.61,4.09,6.98-5.63,1.69-9.74,6.92-9.74,13.09,0,.45.36.81.81.81h25.72c.45,0,.81-.36.81-.81,0-6.17-4.11-11.4-9.74-13.09Z"/>
            <path class="cls-5" d="M47.86,42.15c2.44-1.38,4.09-3.99,4.09-6.98,0-4.42-3.6-8.02-8.02-8.02s-8.02,3.6-8.02,8.02c0,2.99,1.65,5.61,4.09,6.98-5.63,1.69-9.74,6.92-9.74,13.09,0,.45.36.81.81.81h25.72c.45,0,.81-.36.81-.81,0-6.17-4.11-11.4-9.74-13.09Z"/>
            <path class="cls-5" d="M47.73,42.03c2.44-1.38,4.09-3.99,4.09-6.98,0-4.42-3.6-8.02-8.02-8.02s-8.02,3.6-8.02,8.02c0,2.99,1.65,5.61,4.09,6.98-5.63,1.69-9.74,6.92-9.74,13.09,0,.45.36.81.81.81h25.72c.45,0,.81-.36.81-.81,0-6.17-4.11-11.4-9.74-13.09Z"/>
            <path class="cls-5" d="M47.61,41.9c2.44-1.38,4.09-3.99,4.09-6.98,0-4.42-3.6-8.02-8.02-8.02s-8.02,3.6-8.02,8.02c0,2.99,1.65,5.61,4.09,6.98-5.63,1.69-9.74,6.92-9.74,13.09,0,.45.36.81.81.81h25.72c.45,0,.81-.36.81-.81,0-6.17-4.11-11.4-9.74-13.09Z"/>
            <path class="cls-5" d="M47.48,41.77c2.44-1.38,4.09-3.99,4.09-6.98,0-4.42-3.6-8.02-8.02-8.02s-8.02,3.6-8.02,8.02c0,2.99,1.65,5.61,4.09,6.98-5.63,1.69-9.74,6.92-9.74,13.09,0,.45.36.81.81.81h25.72c.45,0,.81-.36.81-.81,0-6.17-4.11-11.4-9.74-13.09Z"/>
            <path class="cls-5" d="M47.35,41.65c2.44-1.38,4.09-3.99,4.09-6.98,0-4.42-3.6-8.02-8.02-8.02s-8.02,3.6-8.02,8.02c0,2.99,1.65,5.61,4.09,6.98-5.63,1.69-9.74,6.92-9.74,13.09,0,.45.36.81.81.81h25.72c.45,0,.81-.36.81-.81,0-6.17-4.11-11.4-9.74-13.09Z"/>
            <path class="cls-5" d="M47.23,41.52c2.44-1.38,4.09-3.99,4.09-6.98,0-4.42-3.6-8.02-8.02-8.02s-8.02,3.6-8.02,8.02c0,2.99,1.65,5.61,4.09,6.98-5.63,1.69-9.74,6.92-9.74,13.09,0,.45.36.81.81.81h25.72c.45,0,.81-.36.81-.81,0-6.17-4.11-11.4-9.74-13.09Z"/>
            <path class="cls-5" d="M47.1,41.39c2.44-1.38,4.09-3.99,4.09-6.98,0-4.42-3.6-8.02-8.02-8.02s-8.02,3.6-8.02,8.02c0,2.99,1.65,5.61,4.09,6.98-5.63,1.69-9.74,6.92-9.74,13.09,0,.45.36.81.81.81h25.72c.45,0,.81-.36.81-.81,0-6.17-4.11-11.4-9.74-13.09Z"/>
            <path class="cls-5" d="M46.97,41.27c2.44-1.38,4.09-3.99,4.09-6.98,0-4.42-3.6-8.02-8.02-8.02s-8.02,3.6-8.02,8.02c0,2.99,1.65,5.61,4.09,6.98-5.63,1.69-9.74,6.92-9.74,13.09,0,.45.36.81.81.81h25.72c.45,0,.81-.36.81-.81,0-6.17-4.11-11.4-9.74-13.09Z"/>
            <path class="cls-5" d="M46.85,41.14c2.44-1.38,4.09-3.99,4.09-6.98,0-4.42-3.6-8.02-8.02-8.02s-8.02,3.6-8.02,8.02c0,2.99,1.65,5.61,4.09,6.98-5.63,1.69-9.74,6.92-9.74,13.09,0,.45.36.81.81.81h25.72c.45,0,.81-.36.81-.81,0-6.17-4.11-11.4-9.74-13.09Z"/>
            <path class="cls-5" d="M46.72,41.01c2.44-1.38,4.09-3.99,4.09-6.98,0-4.42-3.6-8.02-8.02-8.02s-8.02,3.6-8.02,8.02c0,2.99,1.65,5.61,4.09,6.98-5.63,1.69-9.74,6.92-9.74,13.09,0,.45.36.81.81.81h25.72c.45,0,.81-.36.81-.81,0-6.17-4.11-11.4-9.74-13.09Z"/>
            <path class="cls-5" d="M46.59,40.89c2.44-1.38,4.09-3.99,4.09-6.98,0-4.42-3.6-8.02-8.02-8.02s-8.02,3.6-8.02,8.02c0,2.99,1.65,5.61,4.09,6.98-5.63,1.69-9.74,6.92-9.74,13.09,0,.45.36.81.81.81h25.72c.45,0,.81-.36.81-.81,0-6.17-4.11-11.4-9.74-13.09Z"/>
            <path class="cls-5" d="M46.47,40.76c2.44-1.38,4.09-3.99,4.09-6.98,0-4.42-3.6-8.02-8.02-8.02s-8.02,3.6-8.02,8.02c0,2.99,1.65,5.61,4.09,6.98-5.63,1.69-9.74,6.92-9.74,13.09,0,.45.36.81.81.81h25.72c.45,0,.81-.36.81-.81,0-6.17-4.11-11.4-9.74-13.09Z"/>
            <path class="cls-5" d="M46.34,40.63c2.44-1.38,4.09-3.99,4.09-6.98,0-4.42-3.6-8.02-8.02-8.02s-8.02,3.6-8.02,8.02c0,2.99,1.65,5.61,4.09,6.98-5.63,1.69-9.74,6.92-9.74,13.09,0,.45.36.81.81.81h25.72c.45,0,.81-.36.81-.81,0-6.17-4.11-11.4-9.74-13.09Z"/>
            <path class="cls-5" d="M46.21,40.51c2.44-1.38,4.09-3.99,4.09-6.98,0-4.42-3.6-8.02-8.02-8.02s-8.02,3.6-8.02,8.02c0,2.99,1.65,5.61,4.09,6.98-5.63,1.69-9.74,6.92-9.74,13.09,0,.45.36.81.81.81h25.72c.45,0,.81-.36.81-.81,0-6.17-4.11-11.4-9.74-13.09Z"/>
            <path class="cls-5" d="M46.09,40.38c2.44-1.38,4.09-3.99,4.09-6.98,0-4.42-3.6-8.02-8.02-8.02s-8.02,3.6-8.02,8.02c0,2.99,1.65,5.61,4.09,6.98-5.63,1.69-9.74,6.92-9.74,13.09,0,.45.36.81.81.81h25.72c.45,0,.81-.36.81-.81,0-6.17-4.11-11.4-9.74-13.09Z"/>
            <path class="cls-5" d="M45.96,40.25c2.44-1.38,4.09-3.99,4.09-6.98,0-4.42-3.6-8.02-8.02-8.02s-8.02,3.6-8.02,8.02c0,2.99,1.65,5.61,4.09,6.98-5.63,1.69-9.74,6.92-9.74,13.09,0,.45.36.81.81.81h25.72c.45,0,.81-.36.81-.81,0-6.17-4.11-11.4-9.74-13.09Z"/>
            <path class="cls-5" d="M45.83,40.13c2.44-1.38,4.09-3.99,4.09-6.98,0-4.42-3.6-8.02-8.02-8.02s-8.02,3.6-8.02,8.02c0,2.99,1.65,5.61,4.09,6.98-5.63,1.69-9.74,6.92-9.74,13.09,0,.45.36.81.81.81h25.72c.45,0,.81-.36.81-.81,0-6.17-4.11-11.4-9.74-13.09Z"/>
            <path class="cls-5" d="M45.71,40c2.44-1.38,4.09-3.99,4.09-6.98,0-4.42-3.6-8.02-8.02-8.02s-8.02,3.6-8.02,8.02c0,2.99,1.65,5.61,4.09,6.98-5.63,1.69-9.74,6.92-9.74,13.09,0,.45.36.81.81.81h25.72c.45,0,.81-.36.81-.81,0-6.17-4.11-11.4-9.74-13.09Z"/>
            <path class="cls-5" d="M45.58,39.87c2.44-1.38,4.09-3.99,4.09-6.98,0-4.42-3.6-8.02-8.02-8.02s-8.02,3.6-8.02,8.02c0,2.99,1.65,5.61,4.09,6.98-5.63,1.69-9.74,6.92-9.74,13.09,0,.45.36.81.81.81h25.72c.45,0,.81-.36.81-.81,0-6.17-4.11-11.4-9.74-13.09Z"/>
            <path class="cls-5" d="M45.45,39.75c2.44-1.38,4.09-3.99,4.09-6.98,0-4.42-3.6-8.02-8.02-8.02s-8.02,3.6-8.02,8.02c0,2.99,1.65,5.61,4.09,6.98-5.63,1.69-9.74,6.92-9.74,13.09,0,.45.36.81.81.81h25.72c.45,0,.81-.36.81-.81,0-6.17-4.11-11.4-9.74-13.09Z"/>
            <path class="cls-5" d="M45.33,39.62c2.44-1.38,4.09-3.99,4.09-6.98,0-4.42-3.6-8.02-8.02-8.02s-8.02,3.6-8.02,8.02c0,2.99,1.65,5.61,4.09,6.98-5.63,1.69-9.74,6.92-9.74,13.09,0,.45.36.81.81.81h25.72c.45,0,.81-.36.81-.81,0-6.17-4.11-11.4-9.74-13.09Z"/>
            <path class="cls-5" d="M45.2,39.49c2.44-1.38,4.09-3.99,4.09-6.98,0-4.42-3.6-8.02-8.02-8.02s-8.02,3.6-8.02,8.02c0,2.99,1.65,5.61,4.09,6.98-5.63,1.69-9.74,6.92-9.74,13.09,0,.45.36.81.81.81h25.72c.45,0,.81-.36.81-.81,0-6.17-4.11-11.4-9.74-13.09Z"/>
            <path class="cls-5" d="M45.07,39.37c2.44-1.38,4.09-3.99,4.09-6.98,0-4.42-3.6-8.02-8.02-8.02s-8.02,3.6-8.02,8.02c0,2.99,1.65,5.61,4.09,6.98-5.63,1.69-9.74,6.92-9.74,13.09,0,.45.36.81.81.81h25.72c.45,0,.81-.36.81-.81,0-6.17-4.11-11.4-9.74-13.09Z"/>
            <path class="cls-5" d="M44.95,39.24c2.44-1.38,4.09-3.99,4.09-6.98,0-4.42-3.6-8.02-8.02-8.02s-8.02,3.6-8.02,8.02c0,2.99,1.65,5.61,4.09,6.98-5.63,1.69-9.74,6.92-9.74,13.09,0,.45.36.81.81.81h25.72c.45,0,.81-.36.81-.81,0-6.17-4.11-11.4-9.74-13.09Z"/>
            <path class="cls-5" d="M44.82,39.11c2.44-1.38,4.09-3.99,4.09-6.98,0-4.42-3.6-8.02-8.02-8.02s-8.02,3.6-8.02,8.02c0,2.99,1.65,5.61,4.09,6.98-5.63,1.69-9.74,6.92-9.74,13.09,0,.45.36.81.81.81h25.72c.45,0,.81-.36.81-.81,0-6.17-4.11-11.4-9.74-13.09Z"/>
            <path class="cls-5" d="M44.69,38.99c2.44-1.38,4.09-3.99,4.09-6.98,0-4.42-3.6-8.02-8.02-8.02s-8.02,3.6-8.02,8.02c0,2.99,1.65,5.61,4.09,6.98-5.63,1.69-9.74,6.92-9.74,13.09,0,.45.36.81.81.81h25.72c.45,0,.81-.36.81-.81,0-6.17-4.11-11.4-9.74-13.09Z"/>
            <path class="cls-5" d="M44.57,38.86c2.44-1.38,4.09-3.99,4.09-6.98,0-4.42-3.6-8.02-8.02-8.02s-8.02,3.6-8.02,8.02c0,2.99,1.65,5.61,4.09,6.98-5.63,1.69-9.74,6.92-9.74,13.09,0,.45.36.81.81.81h25.72c.45,0,.81-.36.81-.81,0-6.17-4.11-11.4-9.74-13.09Z"/>
            <path class="cls-5" d="M44.44,38.73c2.44-1.38,4.09-3.99,4.09-6.98,0-4.42-3.6-8.02-8.02-8.02s-8.02,3.6-8.02,8.02c0,2.99,1.65,5.61,4.09,6.98-5.63,1.69-9.74,6.92-9.74,13.09,0,.45.36.81.81.81h25.72c.45,0,.81-.36.81-.81,0-6.17-4.11-11.4-9.74-13.09Z"/>
            <path class="cls-5" d="M44.31,38.61c2.44-1.38,4.09-3.99,4.09-6.98,0-4.42-3.6-8.02-8.02-8.02s-8.02,3.6-8.02,8.02c0,2.99,1.65,5.61,4.09,6.98-5.63,1.69-9.74,6.92-9.74,13.09,0,.45.36.81.81.81h25.72c.45,0,.81-.36.81-.81,0-6.17-4.11-11.4-9.74-13.09Z"/>
            <path class="cls-5" d="M44.19,38.48c2.44-1.38,4.09-3.99,4.09-6.98,0-4.42-3.6-8.02-8.02-8.02s-8.02,3.6-8.02,8.02c0,2.99,1.65,5.61,4.09,6.98-5.63,1.69-9.74,6.92-9.74,13.09,0,.45.36.81.81.81h25.72c.45,0,.81-.36.81-.81,0-6.17-4.11-11.4-9.74-13.09Z"/>
            <path class="cls-5" d="M44.06,38.35c2.44-1.38,4.09-3.99,4.09-6.98,0-4.42-3.6-8.02-8.02-8.02s-8.02,3.6-8.02,8.02c0,2.99,1.65,5.61,4.09,6.98-5.63,1.69-9.74,6.92-9.74,13.09,0,.45.36.81.81.81h25.72c.45,0,.81-.36.81-.81,0-6.17-4.11-11.4-9.74-13.09Z"/>
            <path class="cls-5" d="M43.93,38.23c2.44-1.38,4.09-3.99,4.09-6.98,0-4.42-3.6-8.02-8.02-8.02s-8.02,3.6-8.02,8.02c0,2.99,1.65,5.61,4.09,6.98-5.63,1.69-9.74,6.92-9.74,13.09,0,.45.36.81.81.81h25.72c.45,0,.81-.36.81-.81,0-6.17-4.11-11.4-9.74-13.09Z"/>
            <path class="cls-5" d="M43.81,38.1c2.44-1.38,4.09-3.99,4.09-6.98,0-4.42-3.6-8.02-8.02-8.02s-8.02,3.6-8.02,8.02c0,2.99,1.65,5.61,4.09,6.98-5.63,1.69-9.74,6.92-9.74,13.09,0,.45.36.81.81.81h25.72c.45,0,.81-.36.81-.81,0-6.17-4.11-11.4-9.74-13.09Z"/>
            <path class="cls-5" d="M43.68,37.97c2.44-1.38,4.09-3.99,4.09-6.98,0-4.42-3.6-8.02-8.02-8.02s-8.02,3.6-8.02,8.02c0,2.99,1.65,5.61,4.09,6.98-5.63,1.69-9.74,6.92-9.74,13.09,0,.45.36.81.81.81h25.72c.45,0,.81-.36.81-.81,0-6.17-4.11-11.4-9.74-13.09Z"/>
            <path class="cls-5" d="M43.55,37.85c2.44-1.38,4.09-3.99,4.09-6.98,0-4.42-3.6-8.02-8.02-8.02s-8.02,3.6-8.02,8.02c0,2.99,1.65,5.61,4.09,6.98-5.63,1.69-9.74,6.92-9.74,13.09,0,.45.36.81.81.81h25.72c.45,0,.81-.36.81-.81,0-6.17-4.11-11.4-9.74-13.09Z"/>
            <path class="cls-5" d="M43.43,37.72c2.44-1.38,4.09-3.99,4.09-6.98,0-4.42-3.6-8.02-8.02-8.02s-8.02,3.6-8.02,8.02c0,2.99,1.65,5.61,4.09,6.98-5.63,1.69-9.74,6.92-9.74,13.09,0,.45.36.81.81.81h25.72c.45,0,.81-.36.81-.81,0-6.17-4.11-11.4-9.74-13.09Z"/>
            <path class="cls-5" d="M43.3,37.59c2.44-1.38,4.09-3.99,4.09-6.98,0-4.42-3.6-8.02-8.02-8.02s-8.02,3.6-8.02,8.02c0,2.99,1.65,5.61,4.09,6.98-5.63,1.69-9.74,6.92-9.74,13.09,0,.45.36.81.81.81h25.72c.45,0,.81-.36.81-.81,0-6.17-4.11-11.4-9.74-13.09Z"/>
            <path class="cls-5" d="M43.17,37.47c2.44-1.38,4.09-3.99,4.09-6.98,0-4.42-3.6-8.02-8.02-8.02s-8.02,3.6-8.02,8.02c0,2.99,1.65,5.61,4.09,6.98-5.63,1.69-9.74,6.92-9.74,13.09,0,.45.36.81.81.81h25.72c.45,0,.81-.36.81-.81,0-6.17-4.11-11.4-9.74-13.09Z"/>
            <path class="cls-5" d="M43.05,37.34c2.44-1.38,4.09-3.99,4.09-6.98,0-4.42-3.6-8.02-8.02-8.02s-8.02,3.6-8.02,8.02c0,2.99,1.65,5.61,4.09,6.98-5.63,1.69-9.74,6.92-9.74,13.09,0,.45.36.81.81.81h25.72c.45,0,.81-.36.81-.81,0-6.17-4.11-11.4-9.74-13.09Z"/>
            <path class="cls-5" d="M42.92,37.21c2.44-1.38,4.09-3.99,4.09-6.98,0-4.42-3.6-8.02-8.02-8.02s-8.02,3.6-8.02,8.02c0,2.99,1.65,5.61,4.09,6.98-5.63,1.69-9.74,6.92-9.74,13.09,0,.45.36.81.81.81h25.72c.45,0,.81-.36.81-.81,0-6.17-4.11-11.4-9.74-13.09Z"/>
            <path class="cls-5" d="M42.79,37.09c2.44-1.38,4.09-3.99,4.09-6.98,0-4.42-3.6-8.02-8.02-8.02s-8.02,3.6-8.02,8.02c0,2.99,1.65,5.61,4.09,6.98-5.63,1.69-9.74,6.92-9.74,13.09,0,.45.36.81.81.81h25.72c.45,0,.81-.36.81-.81,0-6.17-4.11-11.4-9.74-13.09Z"/>
            <path class="cls-5" d="M42.67,36.96c2.44-1.38,4.09-3.99,4.09-6.98,0-4.42-3.6-8.02-8.02-8.02s-8.02,3.6-8.02,8.02c0,2.99,1.65,5.61,4.09,6.98-5.63,1.69-9.74,6.92-9.74,13.09,0,.45.36.81.81.81h25.72c.45,0,.81-.36.81-.81,0-6.17-4.11-11.4-9.74-13.09Z"/>
            <path class="cls-5" d="M42.54,36.83c2.44-1.38,4.09-3.99,4.09-6.98,0-4.42-3.6-8.02-8.02-8.02s-8.02,3.6-8.02,8.02c0,2.99,1.65,5.61,4.09,6.98-5.63,1.69-9.74,6.92-9.74,13.09,0,.45.36.81.81.81h25.72c.45,0,.81-.36.81-.81,0-6.17-4.11-11.4-9.74-13.09Z"/>
            <path class="cls-5" d="M42.41,36.71c2.44-1.38,4.09-3.99,4.09-6.98,0-4.42-3.6-8.02-8.02-8.02s-8.02,3.6-8.02,8.02c0,2.99,1.65,5.61,4.09,6.98-5.63,1.69-9.74,6.92-9.74,13.09,0,.45.36.81.81.81h25.72c.45,0,.81-.36.81-.81,0-6.17-4.11-11.4-9.74-13.09Z"/>
            <path class="cls-5" d="M42.29,36.58c2.44-1.38,4.09-3.99,4.09-6.98,0-4.42-3.6-8.02-8.02-8.02s-8.02,3.6-8.02,8.02c0,2.99,1.65,5.61,4.09,6.98-5.63,1.69-9.74,6.92-9.74,13.09,0,.45.36.81.81.81h25.72c.45,0,.81-.36.81-.81,0-6.17-4.11-11.4-9.74-13.09Z"/>
            <path class="cls-5" d="M42.16,36.45c2.44-1.38,4.09-3.99,4.09-6.98,0-4.42-3.6-8.02-8.02-8.02s-8.02,3.6-8.02,8.02c0,2.99,1.65,5.61,4.09,6.98-5.63,1.69-9.74,6.92-9.74,13.09,0,.45.36.81.81.81h25.72c.45,0,.81-.36.81-.81,0-6.17-4.11-11.4-9.74-13.09Z"/>
            <path class="cls-5" d="M42.03,36.33c2.44-1.38,4.09-3.99,4.09-6.98,0-4.42-3.6-8.02-8.02-8.02s-8.02,3.6-8.02,8.02c0,2.99,1.65,5.61,4.09,6.98-5.63,1.69-9.74,6.92-9.74,13.09,0,.45.36.81.81.81h25.72c.45,0,.81-.36.81-.81,0-6.17-4.11-11.4-9.74-13.09Z"/>
            <path class="cls-5" d="M41.91,36.2c2.44-1.38,4.09-3.99,4.09-6.98,0-4.42-3.6-8.02-8.02-8.02s-8.02,3.6-8.02,8.02c0,2.99,1.65,5.61,4.09,6.98-5.63,1.69-9.74,6.92-9.74,13.09,0,.45.36.81.81.81h25.72c.45,0,.81-.36.81-.81,0-6.17-4.11-11.4-9.74-13.09Z"/>
            <path class="cls-5" d="M41.78,36.07c2.44-1.38,4.09-3.99,4.09-6.98,0-4.42-3.6-8.02-8.02-8.02s-8.02,3.6-8.02,8.02c0,2.99,1.65,5.61,4.09,6.98-5.63,1.69-9.74,6.92-9.74,13.09,0,.45.36.81.81.81h25.72c.45,0,.81-.36.81-.81,0-6.17-4.11-11.4-9.74-13.09Z"/>
            <path class="cls-5" d="M41.65,35.95c2.44-1.38,4.09-3.99,4.09-6.98,0-4.42-3.6-8.02-8.02-8.02s-8.02,3.6-8.02,8.02c0,2.99,1.65,5.61,4.09,6.98-5.63,1.69-9.74,6.92-9.74,13.09,0,.45.36.81.81.81h25.72c.45,0,.81-.36.81-.81,0-6.17-4.11-11.4-9.74-13.09Z"/>
            <path class="cls-5" d="M41.53,35.82c2.44-1.38,4.09-3.99,4.09-6.98,0-4.42-3.6-8.02-8.02-8.02s-8.02,3.6-8.02,8.02c0,2.99,1.65,5.61,4.09,6.98-5.63,1.69-9.74,6.92-9.74,13.09,0,.45.36.81.81.81h25.72c.45,0,.81-.36.81-.81,0-6.17-4.11-11.4-9.74-13.09Z"/>
            <path class="cls-5" d="M41.4,35.69c2.44-1.38,4.09-3.99,4.09-6.98,0-4.42-3.6-8.02-8.02-8.02s-8.02,3.6-8.02,8.02c0,2.99,1.65,5.61,4.09,6.98-5.63,1.69-9.74,6.92-9.74,13.09,0,.45.36.81.81.81h25.72c.45,0,.81-.36.81-.81,0-6.17-4.11-11.4-9.74-13.09Z"/>
            <path class="cls-5" d="M41.27,35.57c2.44-1.38,4.09-3.99,4.09-6.98,0-4.42-3.6-8.02-8.02-8.02s-8.02,3.6-8.02,8.02c0,2.99,1.65,5.61,4.09,6.98-5.63,1.69-9.74,6.92-9.74,13.09,0,.45.36.81.81.81h25.72c.45,0,.81-.36.81-.81,0-6.17-4.11-11.4-9.74-13.09Z"/>
            <path class="cls-5" d="M41.15,35.44c2.44-1.38,4.09-3.99,4.09-6.98,0-4.42-3.6-8.02-8.02-8.02s-8.02,3.6-8.02,8.02c0,2.99,1.65,5.61,4.09,6.98-5.63,1.69-9.74,6.92-9.74,13.09,0,.45.36.81.81.81h25.72c.45,0,.81-.36.81-.81,0-6.17-4.11-11.4-9.74-13.09Z"/>
            <path class="cls-5" d="M41.02,35.31c2.44-1.38,4.09-3.99,4.09-6.98,0-4.42-3.6-8.02-8.02-8.02s-8.02,3.6-8.02,8.02c0,2.99,1.65,5.61,4.09,6.98-5.63,1.69-9.74,6.92-9.74,13.09,0,.45.36.81.81.81h25.72c.45,0,.81-.36.81-.81,0-6.17-4.11-11.4-9.74-13.09Z"/>
            <path class="cls-5" d="M40.89,35.19c2.44-1.38,4.09-3.99,4.09-6.98,0-4.42-3.6-8.02-8.02-8.02s-8.02,3.6-8.02,8.02c0,2.99,1.65,5.61,4.09,6.98-5.63,1.69-9.74,6.92-9.74,13.09,0,.45.36.81.81.81h25.72c.45,0,.81-.36.81-.81,0-6.17-4.11-11.4-9.74-13.09Z"/>
            <path class="cls-5" d="M40.77,35.06c2.44-1.38,4.09-3.99,4.09-6.98,0-4.42-3.6-8.02-8.02-8.02s-8.02,3.6-8.02,8.02c0,2.99,1.65,5.61,4.09,6.98-5.63,1.69-9.74,6.92-9.74,13.09,0,.45.36.81.81.81h25.72c.45,0,.81-.36.81-.81,0-6.17-4.11-11.4-9.74-13.09Z"/>
            <path class="cls-5" d="M40.64,34.93c2.44-1.38,4.09-3.99,4.09-6.98,0-4.42-3.6-8.02-8.02-8.02s-8.02,3.6-8.02,8.02c0,2.99,1.65,5.61,4.09,6.98-5.63,1.69-9.74,6.92-9.74,13.09,0,.45.36.81.81.81h25.72c.45,0,.81-.36.81-.81,0-6.17-4.11-11.4-9.74-13.09Z"/>
            <path class="cls-5" d="M40.51,34.81c2.44-1.38,4.09-3.99,4.09-6.98,0-4.42-3.6-8.02-8.02-8.02s-8.02,3.6-8.02,8.02c0,2.99,1.65,5.61,4.09,6.98-5.63,1.69-9.74,6.92-9.74,13.09,0,.45.36.81.81.81h25.72c.45,0,.81-.36.81-.81,0-6.17-4.11-11.4-9.74-13.09Z"/>
            <path class="cls-5" d="M40.39,34.68c2.44-1.38,4.09-3.99,4.09-6.98,0-4.42-3.6-8.02-8.02-8.02s-8.02,3.6-8.02,8.02c0,2.99,1.65,5.61,4.09,6.98-5.63,1.69-9.74,6.92-9.74,13.09,0,.45.36.81.81.81h25.72c.45,0,.81-.36.81-.81,0-6.17-4.11-11.4-9.74-13.09Z"/>
            <path class="cls-5" d="M40.26,34.55c2.44-1.38,4.09-3.99,4.09-6.98,0-4.42-3.6-8.02-8.02-8.02s-8.02,3.6-8.02,8.02c0,2.99,1.65,5.61,4.09,6.98-5.63,1.69-9.74,6.92-9.74,13.09,0,.45.36.81.81.81h25.72c.45,0,.81-.36.81-.81,0-6.17-4.11-11.4-9.74-13.09Z"/>
            <path class="cls-5" d="M40.13,34.43c2.44-1.38,4.09-3.99,4.09-6.98,0-4.42-3.6-8.02-8.02-8.02s-8.02,3.6-8.02,8.02c0,2.99,1.65,5.61,4.09,6.98-5.63,1.69-9.74,6.92-9.74,13.09,0,.45.36.81.81.81h25.72c.45,0,.81-.36.81-.81,0-6.17-4.11-11.4-9.74-13.09Z"/>
            <path class="cls-5" d="M40.01,34.3c2.44-1.38,4.09-3.99,4.09-6.98,0-4.42-3.6-8.02-8.02-8.02s-8.02,3.6-8.02,8.02c0,2.99,1.65,5.61,4.09,6.98-5.63,1.69-9.74,6.92-9.74,13.09,0,.45.36.81.81.81h25.72c.45,0,.81-.36.81-.81,0-6.17-4.11-11.4-9.74-13.09Z"/>
            <path class="cls-5" d="M39.88,34.17c2.44-1.38,4.09-3.99,4.09-6.98,0-4.42-3.6-8.02-8.02-8.02s-8.02,3.6-8.02,8.02c0,2.99,1.65,5.61,4.09,6.98-5.63,1.69-9.74,6.92-9.74,13.09,0,.45.36.81.81.81h25.72c.45,0,.81-.36.81-.81,0-6.17-4.11-11.4-9.74-13.09Z"/>
            <path class="cls-5" d="M39.75,34.05c2.44-1.38,4.09-3.99,4.09-6.98,0-4.42-3.6-8.02-8.02-8.02s-8.02,3.6-8.02,8.02c0,2.99,1.65,5.61,4.09,6.98-5.63,1.69-9.74,6.92-9.74,13.09,0,.45.36.81.81.81h25.72c.45,0,.81-.36.81-.81,0-6.17-4.11-11.4-9.74-13.09Z"/>
            <path class="cls-5" d="M39.63,33.92c2.44-1.38,4.09-3.99,4.09-6.98,0-4.42-3.6-8.02-8.02-8.02s-8.02,3.6-8.02,8.02c0,2.99,1.65,5.61,4.09,6.98-5.63,1.69-9.74,6.92-9.74,13.09,0,.45.36.81.81.81h25.72c.45,0,.81-.36.81-.81,0-6.17-4.11-11.4-9.74-13.09Z"/>
            <path class="cls-5" d="M39.5,33.79c2.44-1.38,4.09-3.99,4.09-6.98,0-4.42-3.6-8.02-8.02-8.02s-8.02,3.6-8.02,8.02c0,2.99,1.65,5.61,4.09,6.98-5.63,1.69-9.74,6.92-9.74,13.09,0,.45.36.81.81.81h25.72c.45,0,.81-.36.81-.81,0-6.17-4.11-11.4-9.74-13.09Z"/>
            <path class="cls-5" d="M39.37,33.67c2.44-1.38,4.09-3.99,4.09-6.98,0-4.42-3.6-8.02-8.02-8.02s-8.02,3.6-8.02,8.02c0,2.99,1.65,5.61,4.09,6.98-5.63,1.69-9.74,6.92-9.74,13.09,0,.45.36.81.81.81h25.72c.45,0,.81-.36.81-.81,0-6.17-4.11-11.4-9.74-13.09Z"/>
            <path class="cls-5" d="M39.25,33.54c2.44-1.38,4.09-3.99,4.09-6.98,0-4.42-3.6-8.02-8.02-8.02s-8.02,3.6-8.02,8.02c0,2.99,1.65,5.61,4.09,6.98-5.63,1.69-9.74,6.92-9.74,13.09,0,.45.36.81.81.81h25.72c.45,0,.81-.36.81-.81,0-6.17-4.11-11.4-9.74-13.09Z"/>
            <path class="cls-5" d="M39.12,33.41c2.44-1.38,4.09-3.99,4.09-6.98,0-4.42-3.6-8.02-8.02-8.02s-8.02,3.6-8.02,8.02c0,2.99,1.65,5.61,4.09,6.98-5.63,1.69-9.74,6.92-9.74,13.09,0,.45.36.81.81.81h25.72c.45,0,.81-.36.81-.81,0-6.17-4.11-11.4-9.74-13.09Z"/>
            <path class="cls-5" d="M38.99,33.29c2.44-1.38,4.09-3.99,4.09-6.98,0-4.42-3.6-8.02-8.02-8.02s-8.02,3.6-8.02,8.02c0,2.99,1.65,5.61,4.09,6.98-5.63,1.69-9.74,6.92-9.74,13.09,0,.45.36.81.81.81h25.72c.45,0,.81-.36.81-.81,0-6.17-4.11-11.4-9.74-13.09Z"/>
            <path class="cls-5" d="M38.87,33.16c2.44-1.38,4.09-3.99,4.09-6.98,0-4.42-3.6-8.02-8.02-8.02s-8.02,3.6-8.02,8.02c0,2.99,1.65,5.61,4.09,6.98-5.63,1.69-9.74,6.92-9.74,13.09,0,.45.36.81.81.81h25.72c.45,0,.81-.36.81-.81,0-6.17-4.11-11.4-9.74-13.09Z"/>
            <path class="cls-5" d="M38.74,33.03c2.44-1.38,4.09-3.99,4.09-6.98,0-4.42-3.6-8.02-8.02-8.02s-8.02,3.6-8.02,8.02c0,2.99,1.65,5.61,4.09,6.98-5.63,1.69-9.74,6.92-9.74,13.09,0,.45.36.81.81.81h25.72c.45,0,.81-.36.81-.81,0-6.17-4.11-11.4-9.74-13.09Z"/>
            <path class="cls-5" d="M38.61,32.91c2.44-1.38,4.09-3.99,4.09-6.98,0-4.42-3.6-8.02-8.02-8.02s-8.02,3.6-8.02,8.02c0,2.99,1.65,5.61,4.09,6.98-5.63,1.69-9.74,6.92-9.74,13.09,0,.45.36.81.81.81h25.72c.45,0,.81-.36.81-.81,0-6.17-4.11-11.4-9.74-13.09Z"/>
            <path class="cls-5" d="M38.49,32.78c2.44-1.38,4.09-3.99,4.09-6.98,0-4.42-3.6-8.02-8.02-8.02s-8.02,3.6-8.02,8.02c0,2.99,1.65,5.61,4.09,6.98-5.63,1.69-9.74,6.92-9.74,13.09,0,.45.36.81.81.81h25.72c.45,0,.81-.36.81-.81,0-6.17-4.11-11.4-9.74-13.09Z"/>
            <path class="cls-5" d="M38.36,32.65c2.44-1.38,4.09-3.99,4.09-6.98,0-4.42-3.6-8.02-8.02-8.02s-8.02,3.6-8.02,8.02c0,2.99,1.65,5.61,4.09,6.98-5.63,1.69-9.74,6.92-9.74,13.09,0,.45.36.81.81.81h25.72c.45,0,.81-.36.81-.81,0-6.17-4.11-11.4-9.74-13.09Z"/>
            <path class="cls-5" d="M38.23,32.53c2.44-1.38,4.09-3.99,4.09-6.98,0-4.42-3.6-8.02-8.02-8.02s-8.02,3.6-8.02,8.02c0,2.99,1.65,5.61,4.09,6.98-5.63,1.69-9.74,6.92-9.74,13.09,0,.45.36.81.81.81h25.72c.45,0,.81-.36.81-.81,0-6.17-4.11-11.4-9.74-13.09Z"/>
            <path class="cls-5" d="M38.11,32.4c2.44-1.38,4.09-3.99,4.09-6.98,0-4.42-3.6-8.02-8.02-8.02s-8.02,3.6-8.02,8.02c0,2.99,1.65,5.61,4.09,6.98-5.63,1.69-9.74,6.92-9.74,13.09,0,.45.36.81.81.81h25.72c.45,0,.81-.36.81-.81,0-6.17-4.11-11.4-9.74-13.09Z"/>
            <path class="cls-5" d="M37.98,32.27c2.44-1.38,4.09-3.99,4.09-6.98,0-4.42-3.6-8.02-8.02-8.02s-8.02,3.6-8.02,8.02c0,2.99,1.65,5.61,4.09,6.98-5.63,1.69-9.74,6.92-9.74,13.09,0,.45.36.81.81.81h25.72c.45,0,.81-.36.81-.81,0-6.17-4.11-11.4-9.74-13.09Z"/>
            <path class="cls-5" d="M37.85,32.15c2.44-1.38,4.09-3.99,4.09-6.98,0-4.42-3.6-8.02-8.02-8.02s-8.02,3.6-8.02,8.02c0,2.99,1.65,5.61,4.09,6.98-5.63,1.69-9.74,6.92-9.74,13.09,0,.45.36.81.81.81h25.72c.45,0,.81-.36.81-.81,0-6.17-4.11-11.4-9.74-13.09Z"/>
            <path class="cls-5" d="M37.73,32.02c2.44-1.38,4.09-3.99,4.09-6.98,0-4.42-3.6-8.02-8.02-8.02s-8.02,3.6-8.02,8.02c0,2.99,1.65,5.61,4.09,6.98-5.63,1.69-9.74,6.92-9.74,13.09,0,.45.36.81.81.81h25.72c.45,0,.81-.36.81-.81,0-6.17-4.11-11.4-9.74-13.09Z"/>
            <path class="cls-5" d="M37.6,31.89c2.44-1.38,4.09-3.99,4.09-6.98,0-4.42-3.6-8.02-8.02-8.02s-8.02,3.6-8.02,8.02c0,2.99,1.65,5.61,4.09,6.98-5.63,1.69-9.74,6.92-9.74,13.09,0,.45.36.81.81.81h25.72c.45,0,.81-.36.81-.81,0-6.17-4.11-11.4-9.74-13.09Z"/>
            <path class="cls-5" d="M37.47,31.77c2.44-1.38,4.09-3.99,4.09-6.98,0-4.42-3.6-8.02-8.02-8.02s-8.02,3.6-8.02,8.02c0,2.99,1.65,5.61,4.09,6.98-5.63,1.69-9.74,6.92-9.74,13.09,0,.45.36.81.81.81h25.72c.45,0,.81-.36.81-.81,0-6.17-4.11-11.4-9.74-13.09Z"/>
            <path class="cls-5" d="M37.35,31.64c2.44-1.38,4.09-3.99,4.09-6.98,0-4.42-3.6-8.02-8.02-8.02s-8.02,3.6-8.02,8.02c0,2.99,1.65,5.61,4.09,6.98-5.63,1.69-9.74,6.92-9.74,13.09,0,.45.36.81.81.81h25.72c.45,0,.81-.36.81-.81,0-6.17-4.11-11.4-9.74-13.09Z"/>
            <path class="cls-5" d="M37.22,31.51c2.44-1.38,4.09-3.99,4.09-6.98,0-4.42-3.6-8.02-8.02-8.02s-8.02,3.6-8.02,8.02c0,2.99,1.65,5.61,4.09,6.98-5.63,1.69-9.74,6.92-9.74,13.09,0,.45.36.81.81.81h25.72c.45,0,.81-.36.81-.81,0-6.17-4.11-11.4-9.74-13.09Z"/>
            <path class="cls-5" d="M37.09,31.39c2.44-1.38,4.09-3.99,4.09-6.98,0-4.42-3.6-8.02-8.02-8.02s-8.02,3.6-8.02,8.02c0,2.99,1.65,5.61,4.09,6.98-5.63,1.69-9.74,6.92-9.74,13.09,0,.45.36.81.81.81h25.72c.45,0,.81-.36.81-.81,0-6.17-4.11-11.4-9.74-13.09Z"/>
            <path class="cls-5" d="M36.97,31.26c2.44-1.38,4.09-3.99,4.09-6.98,0-4.42-3.6-8.02-8.02-8.02s-8.02,3.6-8.02,8.02c0,2.99,1.65,5.61,4.09,6.98-5.63,1.69-9.74,6.92-9.74,13.09,0,.45.36.81.81.81h25.72c.45,0,.81-.36.81-.81,0-6.17-4.11-11.4-9.74-13.09Z"/>
            <path class="cls-5" d="M36.84,31.13c2.44-1.38,4.09-3.99,4.09-6.98,0-4.42-3.6-8.02-8.02-8.02s-8.02,3.6-8.02,8.02c0,2.99,1.65,5.61,4.09,6.98-5.63,1.69-9.74,6.92-9.74,13.09,0,.45.36.81.81.81h25.72c.45,0,.81-.36.81-.81,0-6.17-4.11-11.4-9.74-13.09Z"/>
            <path class="cls-5" d="M36.71,31.01c2.44-1.38,4.09-3.99,4.09-6.98,0-4.42-3.6-8.02-8.02-8.02s-8.02,3.6-8.02,8.02c0,2.99,1.65,5.61,4.09,6.98-5.63,1.69-9.74,6.92-9.74,13.09,0,.45.36.81.81.81h25.72c.45,0,.81-.36.81-.81,0-6.17-4.11-11.4-9.74-13.09Z"/>
            <path class="cls-5" d="M36.59,30.88c2.44-1.38,4.09-3.99,4.09-6.98,0-4.42-3.6-8.02-8.02-8.02s-8.02,3.6-8.02,8.02c0,2.99,1.65,5.61,4.09,6.98-5.63,1.69-9.74,6.92-9.74,13.09,0,.45.36.81.81.81h25.72c.45,0,.81-.36.81-.81,0-6.17-4.11-11.4-9.74-13.09Z"/>
            <path class="cls-5" d="M36.46,30.75c2.44-1.38,4.09-3.99,4.09-6.98,0-4.42-3.6-8.02-8.02-8.02s-8.02,3.6-8.02,8.02c0,2.99,1.65,5.61,4.09,6.98-5.63,1.69-9.74,6.92-9.74,13.09,0,.45.36.81.81.81h25.72c.45,0,.81-.36.81-.81,0-6.17-4.11-11.4-9.74-13.09Z"/>
            <path class="cls-5" d="M36.33,30.63c2.44-1.38,4.09-3.99,4.09-6.98,0-4.42-3.6-8.02-8.02-8.02s-8.02,3.6-8.02,8.02c0,2.99,1.65,5.61,4.09,6.98-5.63,1.69-9.74,6.92-9.74,13.09,0,.45.36.81.81.81h25.72c.45,0,.81-.36.81-.81,0-6.17-4.11-11.4-9.74-13.09Z"/>
            <path class="cls-5" d="M36.21,30.5c2.44-1.38,4.09-3.99,4.09-6.98,0-4.42-3.6-8.02-8.02-8.02s-8.02,3.6-8.02,8.02c0,2.99,1.65,5.61,4.09,6.98-5.63,1.69-9.74,6.92-9.74,13.09,0,.45.36.81.81.81h25.72c.45,0,.81-.36.81-.81,0-6.17-4.11-11.4-9.74-13.09Z"/>
            <path class="cls-5" d="M36.08,30.37c2.44-1.38,4.09-3.99,4.09-6.98,0-4.42-3.6-8.02-8.02-8.02s-8.02,3.6-8.02,8.02c0,2.99,1.65,5.61,4.09,6.98-5.63,1.69-9.74,6.92-9.74,13.09,0,.45.36.81.81.81h25.72c.45,0,.81-.36.81-.81,0-6.17-4.11-11.4-9.74-13.09Z"/>
            <path class="cls-5" d="M35.95,30.25c2.44-1.38,4.09-3.99,4.09-6.98,0-4.42-3.6-8.02-8.02-8.02s-8.02,3.6-8.02,8.02c0,2.99,1.65,5.61,4.09,6.98-5.63,1.69-9.74,6.92-9.74,13.09,0,.45.36.81.81.81h25.72c.45,0,.81-.36.81-.81,0-6.17-4.11-11.4-9.74-13.09Z"/>
            <path class="cls-5" d="M35.83,30.12c2.44-1.38,4.09-3.99,4.09-6.98,0-4.42-3.6-8.02-8.02-8.02s-8.02,3.6-8.02,8.02c0,2.99,1.65,5.61,4.09,6.98-5.63,1.69-9.74,6.92-9.74,13.09,0,.45.36.81.81.81h25.72c.45,0,.81-.36.81-.81,0-6.17-4.11-11.4-9.74-13.09Z"/>
            <path class="cls-5" d="M35.7,29.99c2.44-1.38,4.09-3.99,4.09-6.98,0-4.42-3.6-8.02-8.02-8.02s-8.02,3.6-8.02,8.02c0,2.99,1.65,5.61,4.09,6.98-5.63,1.69-9.74,6.92-9.74,13.09,0,.45.36.81.81.81h25.72c.45,0,.81-.36.81-.81,0-6.17-4.11-11.4-9.74-13.09Z"/>
            <path class="cls-5" d="M35.57,29.87c2.44-1.38,4.09-3.99,4.09-6.98,0-4.42-3.6-8.02-8.02-8.02s-8.02,3.6-8.02,8.02c0,2.99,1.65,5.61,4.09,6.98-5.63,1.69-9.74,6.92-9.74,13.09,0,.45.36.81.81.81h25.72c.45,0,.81-.36.81-.81,0-6.17-4.11-11.4-9.74-13.09Z"/>
            <path class="cls-5" d="M35.45,29.74c2.44-1.38,4.09-3.99,4.09-6.98,0-4.42-3.6-8.02-8.02-8.02s-8.02,3.6-8.02,8.02c0,2.99,1.65,5.61,4.09,6.98-5.63,1.69-9.74,6.92-9.74,13.09,0,.45.36.81.81.81h25.72c.45,0,.81-.36.81-.81,0-6.17-4.11-11.4-9.74-13.09Z"/>
            <path class="cls-5" d="M35.32,29.61c2.44-1.38,4.09-3.99,4.09-6.98,0-4.42-3.6-8.02-8.02-8.02s-8.02,3.6-8.02,8.02c0,2.99,1.65,5.61,4.09,6.98-5.63,1.69-9.74,6.92-9.74,13.09,0,.45.36.81.81.81h25.72c.45,0,.81-.36.81-.81,0-6.17-4.11-11.4-9.74-13.09Z"/>
            <path class="cls-5" d="M35.19,29.49c2.44-1.38,4.09-3.99,4.09-6.98,0-4.42-3.6-8.02-8.02-8.02s-8.02,3.6-8.02,8.02c0,2.99,1.65,5.61,4.09,6.98-5.63,1.69-9.74,6.92-9.74,13.09,0,.45.36.81.81.81h25.72c.45,0,.81-.36.81-.81,0-6.17-4.11-11.4-9.74-13.09Z"/>
            <path class="cls-5" d="M35.07,29.36c2.44-1.38,4.09-3.99,4.09-6.98,0-4.42-3.6-8.02-8.02-8.02s-8.02,3.6-8.02,8.02c0,2.99,1.65,5.61,4.09,6.98-5.63,1.69-9.74,6.92-9.74,13.09,0,.45.36.81.81.81h25.72c.45,0,.81-.36.81-.81,0-6.17-4.11-11.4-9.74-13.09Z"/>
            <path class="cls-5" d="M34.94,29.23c2.44-1.38,4.09-3.99,4.09-6.98,0-4.42-3.6-8.02-8.02-8.02s-8.02,3.6-8.02,8.02c0,2.99,1.65,5.61,4.09,6.98-5.63,1.69-9.74,6.92-9.74,13.09,0,.45.36.81.81.81h25.72c.45,0,.81-.36.81-.81,0-6.17-4.11-11.4-9.74-13.09Z"/>
            <path class="cls-5" d="M34.81,29.11c2.44-1.38,4.09-3.99,4.09-6.98,0-4.42-3.6-8.02-8.02-8.02s-8.02,3.6-8.02,8.02c0,2.99,1.65,5.61,4.09,6.98-5.63,1.69-9.74,6.92-9.74,13.09,0,.45.36.81.81.81h25.72c.45,0,.81-.36.81-.81,0-6.17-4.11-11.4-9.74-13.09Z"/>
            <path class="cls-5" d="M34.69,28.98c2.44-1.38,4.09-3.99,4.09-6.98,0-4.42-3.6-8.02-8.02-8.02s-8.02,3.6-8.02,8.02c0,2.99,1.65,5.61,4.09,6.98-5.63,1.69-9.74,6.92-9.74,13.09,0,.45.36.81.81.81h25.72c.45,0,.81-.36.81-.81,0-6.17-4.11-11.4-9.74-13.09Z"/>
            <path class="cls-5" d="M34.56,28.85c2.44-1.38,4.09-3.99,4.09-6.98,0-4.42-3.6-8.02-8.02-8.02s-8.02,3.6-8.02,8.02c0,2.99,1.65,5.61,4.09,6.98-5.63,1.69-9.74,6.92-9.74,13.09,0,.45.36.81.81.81h25.72c.45,0,.81-.36.81-.81,0-6.17-4.11-11.4-9.74-13.09Z"/>
            <path class="cls-5" d="M34.43,28.73c2.44-1.38,4.09-3.99,4.09-6.98,0-4.42-3.6-8.02-8.02-8.02s-8.02,3.6-8.02,8.02c0,2.99,1.65,5.61,4.09,6.98-5.63,1.69-9.74,6.92-9.74,13.09,0,.45.36.81.81.81h25.72c.45,0,.81-.36.81-.81,0-6.17-4.11-11.4-9.74-13.09Z"/>
            <path class="cls-5" d="M34.31,28.6c2.44-1.38,4.09-3.99,4.09-6.98,0-4.42-3.6-8.02-8.02-8.02s-8.02,3.6-8.02,8.02c0,2.99,1.65,5.61,4.09,6.98-5.63,1.69-9.74,6.92-9.74,13.09,0,.45.36.81.81.81h25.72c.45,0,.81-.36.81-.81,0-6.17-4.11-11.4-9.74-13.09Z"/>
            <path class="cls-5" d="M34.18,28.47c2.44-1.38,4.09-3.99,4.09-6.98,0-4.42-3.6-8.02-8.02-8.02s-8.02,3.6-8.02,8.02c0,2.99,1.65,5.61,4.09,6.98-5.63,1.69-9.74,6.92-9.74,13.09,0,.45.36.81.81.81h25.72c.45,0,.81-.36.81-.81,0-6.17-4.11-11.4-9.74-13.09Z"/>
            <path class="cls-5" d="M34.05,28.35c2.44-1.38,4.09-3.99,4.09-6.98,0-4.42-3.6-8.02-8.02-8.02s-8.02,3.6-8.02,8.02c0,2.99,1.65,5.61,4.09,6.98-5.63,1.69-9.74,6.92-9.74,13.09,0,.45.36.81.81.81h25.72c.45,0,.81-.36.81-.81,0-6.17-4.11-11.4-9.74-13.09Z"/>
            <path class="cls-5" d="M33.93,28.22c2.44-1.38,4.09-3.99,4.09-6.98,0-4.42-3.6-8.02-8.02-8.02s-8.02,3.6-8.02,8.02c0,2.99,1.65,5.61,4.09,6.98-5.63,1.69-9.74,6.92-9.74,13.09,0,.45.36.81.81.81h25.72c.45,0,.81-.36.81-.81,0-6.17-4.11-11.4-9.74-13.09Z"/>
            <path class="cls-5" d="M33.8,28.1c2.44-1.38,4.09-3.99,4.09-6.98,0-4.42-3.6-8.02-8.02-8.02s-8.02,3.6-8.02,8.02c0,2.99,1.65,5.61,4.09,6.98-5.63,1.69-9.74,6.92-9.74,13.09,0,.45.36.81.81.81h25.72c.45,0,.81-.36.81-.81,0-6.17-4.11-11.4-9.74-13.09Z"/>
            <path class="cls-5" d="M33.67,27.97c2.44-1.38,4.09-3.99,4.09-6.98,0-4.42-3.6-8.02-8.02-8.02s-8.02,3.6-8.02,8.02c0,2.99,1.65,5.61,4.09,6.98-5.63,1.69-9.74,6.92-9.74,13.09,0,.45.36.81.81.81h25.72c.45,0,.81-.36.81-.81,0-6.17-4.11-11.4-9.74-13.09Z"/>
            <path class="cls-5" d="M33.55,27.84c2.44-1.38,4.09-3.99,4.09-6.98,0-4.42-3.6-8.02-8.02-8.02s-8.02,3.6-8.02,8.02c0,2.99,1.65,5.61,4.09,6.98-5.63,1.69-9.74,6.92-9.74,13.09,0,.45.36.81.81.81h25.72c.45,0,.81-.36.81-.81,0-6.17-4.11-11.4-9.74-13.09Z"/>
            <path class="cls-5" d="M33.42,27.72c2.44-1.38,4.09-3.99,4.09-6.98,0-4.42-3.6-8.02-8.02-8.02s-8.02,3.6-8.02,8.02c0,2.99,1.65,5.61,4.09,6.98-5.63,1.69-9.74,6.92-9.74,13.09,0,.45.36.81.81.81h25.72c.45,0,.81-.36.81-.81,0-6.17-4.11-11.4-9.74-13.09Z"/>
            <path class="cls-5" d="M33.29,27.59c2.44-1.38,4.09-3.99,4.09-6.98,0-4.42-3.6-8.02-8.02-8.02s-8.02,3.6-8.02,8.02c0,2.99,1.65,5.61,4.09,6.98-5.63,1.69-9.74,6.92-9.74,13.09,0,.45.36.81.81.81h25.72c.45,0,.81-.36.81-.81,0-6.17-4.11-11.4-9.74-13.09Z"/>
            <path class="cls-5" d="M33.17,27.46c2.44-1.38,4.09-3.99,4.09-6.98,0-4.42-3.6-8.02-8.02-8.02s-8.02,3.6-8.02,8.02c0,2.99,1.65,5.61,4.09,6.98-5.63,1.69-9.74,6.92-9.74,13.09,0,.45.36.81.81.81h25.72c.45,0,.81-.36.81-.81,0-6.17-4.11-11.4-9.74-13.09Z"/>
            <path class="cls-5" d="M33.04,27.34c2.44-1.38,4.09-3.99,4.09-6.98,0-4.42-3.6-8.02-8.02-8.02s-8.02,3.6-8.02,8.02c0,2.99,1.65,5.61,4.09,6.98-5.63,1.69-9.74,6.92-9.74,13.09,0,.45.36.81.81.81h25.72c.45,0,.81-.36.81-.81,0-6.17-4.11-11.4-9.74-13.09Z"/>
            <path class="cls-5" d="M32.91,27.21c2.44-1.38,4.09-3.99,4.09-6.98,0-4.42-3.6-8.02-8.02-8.02s-8.02,3.6-8.02,8.02c0,2.99,1.65,5.61,4.09,6.98-5.63,1.69-9.74,6.92-9.74,13.09,0,.45.36.81.81.81h25.72c.45,0,.81-.36.81-.81,0-6.17-4.11-11.4-9.74-13.09Z"/>
            <path class="cls-5" d="M32.79,27.08c2.44-1.38,4.09-3.99,4.09-6.98,0-4.42-3.6-8.02-8.02-8.02s-8.02,3.6-8.02,8.02c0,2.99,1.65,5.61,4.09,6.98-5.63,1.69-9.74,6.92-9.74,13.09,0,.45.36.81.81.81h25.72c.45,0,.81-.36.81-.81,0-6.17-4.11-11.4-9.74-13.09Z"/>
            <path class="cls-5" d="M32.66,26.96c2.44-1.38,4.09-3.99,4.09-6.98,0-4.42-3.6-8.02-8.02-8.02s-8.02,3.6-8.02,8.02c0,2.99,1.65,5.61,4.09,6.98-5.63,1.69-9.74,6.92-9.74,13.09,0,.45.36.81.81.81h25.72c.45,0,.81-.36.81-.81,0-6.17-4.11-11.4-9.74-13.09Z"/>
            <path class="cls-5" d="M32.53,26.83c2.44-1.38,4.09-3.99,4.09-6.98,0-4.42-3.6-8.02-8.02-8.02s-8.02,3.6-8.02,8.02c0,2.99,1.65,5.61,4.09,6.98-5.63,1.69-9.74,6.92-9.74,13.09,0,.45.36.81.81.81h25.72c.45,0,.81-.36.81-.81,0-6.17-4.11-11.4-9.74-13.09Z"/>
            <path class="cls-5" d="M32.41,26.7c2.44-1.38,4.09-3.99,4.09-6.98,0-4.42-3.6-8.02-8.02-8.02s-8.02,3.6-8.02,8.02c0,2.99,1.65,5.61,4.09,6.98-5.63,1.69-9.74,6.92-9.74,13.09,0,.45.36.81.81.81h25.72c.45,0,.81-.36.81-.81,0-6.17-4.11-11.4-9.74-13.09Z"/>
            <path class="cls-5" d="M32.28,26.58c2.44-1.38,4.09-3.99,4.09-6.98,0-4.42-3.6-8.02-8.02-8.02s-8.02,3.6-8.02,8.02c0,2.99,1.65,5.61,4.09,6.98-5.63,1.69-9.74,6.92-9.74,13.09,0,.45.36.81.81.81h25.72c.45,0,.81-.36.81-.81,0-6.17-4.11-11.4-9.74-13.09Z"/>
            <path class="cls-5" d="M32.15,26.45c2.44-1.38,4.09-3.99,4.09-6.98,0-4.42-3.6-8.02-8.02-8.02s-8.02,3.6-8.02,8.02c0,2.99,1.65,5.61,4.09,6.98-5.63,1.69-9.74,6.92-9.74,13.09,0,.45.36.81.81.81h25.72c.45,0,.81-.36.81-.81,0-6.17-4.11-11.4-9.74-13.09Z"/>
            <path class="cls-5" d="M32.03,26.32c2.44-1.38,4.09-3.99,4.09-6.98,0-4.42-3.6-8.02-8.02-8.02s-8.02,3.6-8.02,8.02c0,2.99,1.65,5.61,4.09,6.98-5.63,1.69-9.74,6.92-9.74,13.09,0,.45.36.81.81.81h25.72c.45,0,.81-.36.81-.81,0-6.17-4.11-11.4-9.74-13.09Z"/>
            <path class="cls-5" d="M31.9,26.2c2.44-1.38,4.09-3.99,4.09-6.98,0-4.42-3.6-8.02-8.02-8.02s-8.02,3.6-8.02,8.02c0,2.99,1.65,5.61,4.09,6.98-5.63,1.69-9.74,6.92-9.74,13.09,0,.45.36.81.81.81h25.72c.45,0,.81-.36.81-.81,0-6.17-4.11-11.4-9.74-13.09Z"/>
            <path class="cls-5" d="M31.77,26.07c2.44-1.38,4.09-3.99,4.09-6.98,0-4.42-3.6-8.02-8.02-8.02s-8.02,3.6-8.02,8.02c0,2.99,1.65,5.61,4.09,6.98-5.63,1.69-9.74,6.92-9.74,13.09,0,.45.36.81.81.81h25.72c.45,0,.81-.36.81-.81,0-6.17-4.11-11.4-9.74-13.09Z"/>
            <path class="cls-5" d="M31.65,25.94c2.44-1.38,4.09-3.99,4.09-6.98,0-4.42-3.6-8.02-8.02-8.02s-8.02,3.6-8.02,8.02c0,2.99,1.65,5.61,4.09,6.98-5.63,1.69-9.74,6.92-9.74,13.09,0,.45.36.81.81.81h25.72c.45,0,.81-.36.81-.81,0-6.17-4.11-11.4-9.74-13.09Z"/>
            <path class="cls-5" d="M31.52,25.82c2.44-1.38,4.09-3.99,4.09-6.98,0-4.42-3.6-8.02-8.02-8.02s-8.02,3.6-8.02,8.02c0,2.99,1.65,5.61,4.09,6.98-5.63,1.69-9.74,6.92-9.74,13.09,0,.45.36.81.81.81h25.72c.45,0,.81-.36.81-.81,0-6.17-4.11-11.4-9.74-13.09Z"/>
          </g>
        </g>
      </g>
      <path class="cls-4" d="M31.52,25.82c2.44-1.38,4.09-3.99,4.09-6.98,0-4.42-3.6-8.02-8.02-8.02s-8.02,3.6-8.02,8.02c0,2.99,1.65,5.61,4.09,6.98-5.63,1.69-9.74,6.92-9.74,13.09,0,.45.36.81.81.81h25.72c.45,0,.81-.36.81-.81,0-6.17-4.11-11.4-9.74-13.09Z"/>
    </g>
  </g>
</svg>