<?xml version="1.0" encoding="UTF-8"?>
<svg id="Layer_2" xmlns="http://www.w3.org/2000/svg" viewBox="0 0 54.19 54.19">
  <defs>
    <style>
      .cls-1 {
        fill: #fff;
        stroke: #057a7d;
        stroke-miterlimit: 10;
        stroke-width: 1.4px;
      }

      .cls-2 {
        fill: #057a7d;
      }
    </style>
  </defs>
  <g id="Layer_1-2" data-name="Layer_1">
    <g>
      <rect class="cls-1" x=".7" y=".7" width="52.79" height="52.79" rx="26.39" ry="26.39"/>
      <path id="Reload" class="cls-2" d="M27.33,41.82c-.44,0-.89-.02-1.33-.07-2.59-.26-5.02-1.28-7.03-2.93-.29-.24-.47-.58-.5-.95-.04-.37.08-.74.31-1.03.27-.32.66-.51,1.08-.51.05,0,.1,0,.14,0,.28.03.54.14.75.31,1.57,1.3,3.48,2.09,5.52,2.3.35.04.7.05,1.04.05,5.31,0,9.72-3.99,10.25-9.27.57-5.66-3.56-10.72-9.22-11.3-.35-.04-.7-.05-1.05-.05-1.68,0-3.34.42-4.82,1.2l-.03.02h-.02s-.01.02-.01.02c-.08.04-.8.41-1.58,1.1-.61.54-1.11,1.12-1.48,1.74l-.44.74,3.93-.47c.29-.03.46.31.25.51-1.73,1.69-7.35,6.24-7.35,6.24-.05.05-.12.07-.19.07,0,0-.02,0-.03,0-.13-.01-.23-.1-.26-.23-.52-3.15-1.04-6.29-1.57-9.44-.05-.31.34-.48.53-.23.68.89,1.36,1.79,2.05,2.68l.25-.54c.23-.49.51-.96.83-1.41.47-.66,1.05-1.29,1.71-1.85,1-.86,1.87-1.32,2.12-1.44h0s0,0,0,0c.94-.5,1.94-.88,2.96-1.13,1.02-.25,2.08-.38,3.14-.38.44,0,.89.02,1.33.07.88.09,1.76.27,2.6.53.82.26,1.62.6,2.38,1.01.74.41,1.45.89,2.1,1.43.64.54,1.24,1.14,1.77,1.79.53.65,1,1.35,1.4,2.09.4.75.73,1.53.98,2.34.25.82.43,1.67.51,2.53.09.88.09,1.77,0,2.66-.09.88-.27,1.76-.53,2.6-.26.82-.6,1.62-1.01,2.38-.41.74-.89,1.45-1.43,2.1-.54.64-1.14,1.24-1.79,1.77-.65.53-1.35,1-2.09,1.4-.75.4-1.53.73-2.34.98-.82.25-1.67.43-2.53.51-.44.04-.88.07-1.32.07Z"/>
    </g>
  </g>
</svg>